<?xml version="1.0" encoding="UTF-8" standalone="no"?><!DOCTYPE svg PUBLIC "-//W3C//DTD SVG 1.1//EN" "http://www.w3.org/Graphics/SVG/1.1/DTD/svg11.dtd"><svg width="100%" height="100%" viewBox="0 0 55 55" version="1.1" xmlns="http://www.w3.org/2000/svg" xmlns:xlink="http://www.w3.org/1999/xlink" xml:space="preserve" xmlns:serif="http://www.serif.com/" style="fill-rule:evenodd;clip-rule:evenodd;stroke-linejoin:round;stroke-miterlimit:1.41421;"><path d="M27.922,1.94c-14.225,0 -25.747,11.773 -25.747,26.294c0,11.62 7.376,21.474 17.605,24.947c1.287,0.247 1.759,-0.566 1.759,-1.265c0,-0.624 -0.022,-2.278 -0.032,-4.47c-7.162,1.587 -8.673,-3.527 -8.673,-3.527c-1.171,-3.035 -2.864,-3.846 -2.864,-3.846c-2.333,-1.63 0.18,-1.597 0.18,-1.597c2.585,0.184 3.944,2.708 3.944,2.708c2.295,4.021 6.027,2.86 7.499,2.187c0.231,-1.701 0.894,-2.86 1.63,-3.517c-5.718,-0.657 -11.728,-2.919 -11.728,-12.994c0,-2.87 0.998,-5.215 2.65,-7.055c-0.29,-0.664 -1.159,-3.337 0.225,-6.959c0,0 2.157,-0.706 7.081,2.695c2.06,-0.585 4.248,-0.874 6.437,-0.888c2.188,0.014 4.377,0.303 6.437,0.888c4.892,-3.401 7.048,-2.695 7.048,-2.695c1.384,3.622 0.515,6.295 0.258,6.959c1.641,1.84 2.639,4.185 2.639,7.055c0,10.102 -6.019,12.326 -11.748,12.972c0.902,0.789 1.738,2.402 1.738,4.864c0,3.52 -0.032,6.346 -0.032,7.201c0,0.69 0.451,1.512 1.77,1.249c10.302,-3.449 17.672,-13.31 17.672,-24.912c0,-14.521 -11.529,-26.294 -25.748,-26.294" style="fill:#f9cdd7;fill-rule:nonzero;stroke:#5a5a5a;stroke-width:2.24px;"/></svg>