<?xml version="1.0" encoding="UTF-8" standalone="no"?><!DOCTYPE svg PUBLIC "-//W3C//DTD SVG 1.1//EN" "http://www.w3.org/Graphics/SVG/1.1/DTD/svg11.dtd"><svg width="100%" height="100%" viewBox="0 0 24 24" version="1.1" xmlns="http://www.w3.org/2000/svg" xmlns:xlink="http://www.w3.org/1999/xlink" xml:space="preserve" xmlns:serif="http://www.serif.com/" style="fill-rule:evenodd;clip-rule:evenodd;stroke-linejoin:round;stroke-miterlimit:1.41421;"><path d="M12,0.582c-6.337,0 -11.471,5.245 -11.471,11.714c0,5.177 3.287,9.566 7.843,11.114c0.574,0.11 0.784,-0.252 0.784,-0.564c0,-0.278 -0.009,-1.015 -0.014,-1.991c-3.191,0.707 -3.864,-1.572 -3.864,-1.572c-0.522,-1.352 -1.276,-1.713 -1.276,-1.713c-1.039,-0.726 0.08,-0.711 0.08,-0.711c1.152,0.082 1.757,1.206 1.757,1.206c1.023,1.791 2.685,1.274 3.341,0.974c0.103,-0.757 0.399,-1.274 0.727,-1.566c-2.548,-0.293 -5.225,-1.301 -5.225,-5.789c0,-1.279 0.444,-2.323 1.18,-3.143c-0.129,-0.296 -0.516,-1.487 0.101,-3.101c0,0 0.96,-0.314 3.154,1.201c0.918,-0.261 1.893,-0.389 2.868,-0.395c0.975,0.006 1.95,0.134 2.867,0.395c2.18,-1.515 3.14,-1.201 3.14,-1.201c0.617,1.614 0.23,2.805 0.115,3.101c0.731,0.82 1.176,1.864 1.176,3.143c0,4.5 -2.681,5.491 -5.234,5.779c0.402,0.351 0.775,1.07 0.775,2.167c0,1.568 -0.015,2.827 -0.015,3.208c0,0.307 0.201,0.673 0.789,0.556c4.589,-1.536 7.873,-5.929 7.873,-11.098c0,-6.469 -5.136,-11.714 -11.471,-11.714" style="fill:#d7ebcf;fill-rule:nonzero;stroke:#5a5a5a;stroke-width:1px;"/></svg>