<?xml version="1.0" encoding="UTF-8" standalone="no"?><!DOCTYPE svg PUBLIC "-//W3C//DTD SVG 1.1//EN" "http://www.w3.org/Graphics/SVG/1.1/DTD/svg11.dtd"><svg width="100%" height="100%" viewBox="0 0 55 55" version="1.1" xmlns="http://www.w3.org/2000/svg" xmlns:xlink="http://www.w3.org/1999/xlink" xml:space="preserve" xmlns:serif="http://www.serif.com/" style="fill-rule:evenodd;clip-rule:evenodd;stroke-linejoin:round;stroke-miterlimit:1.41421;"><clipPath id="_clip1"><rect id="linkedin" x="0.986" y="0.855" width="53.872" height="53.872"/></clipPath><g clip-path="url(#_clip1)"><path d="M46.143,46.023l-7.666,0l0,-12.013c0,-2.864 -0.058,-6.551 -3.995,-6.551c-3.997,0 -4.608,3.117 -4.608,6.34l0,12.224l-7.666,0l0,-24.703l7.364,0l0,3.367l0.1,0c1.029,-1.941 3.531,-3.99 7.269,-3.99c7.768,0 9.204,5.112 9.204,11.767l0,13.559l-0.002,0Zm-32.593,-28.083c-2.468,0 -4.45,-1.997 -4.45,-4.454c0,-2.455 1.984,-4.45 4.45,-4.45c2.459,0 4.452,1.995 4.452,4.45c0,2.457 -1.995,4.454 -4.452,4.454Zm3.844,28.083l-7.688,0l0,-24.703l7.688,0l0,24.703Zm32.584,-44.116l-44.12,0c-2.112,0 -3.821,1.669 -3.821,3.729l0,44.311c0,2.062 1.709,3.729 3.821,3.729l44.114,0c2.109,0 3.835,-1.667 3.835,-3.729l0,-44.311c0,-2.06 -1.726,-3.729 -3.835,-3.729l0.006,0Z" style="fill:#f9cdd7;fill-rule:nonzero;stroke:#5a5a5a;stroke-width:2.24px;"/></g></svg>