<?xml version="1.0" encoding="UTF-8" standalone="no"?><!DOCTYPE svg PUBLIC "-//W3C//DTD SVG 1.1//EN" "http://www.w3.org/Graphics/SVG/1.1/DTD/svg11.dtd"><svg width="100%" height="100%" viewBox="0 0 24 24" version="1.1" xmlns="http://www.w3.org/2000/svg" xmlns:xlink="http://www.w3.org/1999/xlink" xml:space="preserve" xmlns:serif="http://www.serif.com/" style="fill-rule:evenodd;clip-rule:evenodd;stroke-linejoin:round;stroke-miterlimit:1.41421;"><path d="M20.117,20.122l-3.415,0l0,-5.352c0,-1.276 -0.026,-2.918 -1.78,-2.918c-1.78,0 -2.052,1.389 -2.052,2.824l0,5.446l-3.416,0l0,-11.005l3.281,0l0,1.5l0.044,0c0.459,-0.865 1.573,-1.778 3.239,-1.778c3.46,0 4.1,2.278 4.1,5.242l0,6.041l-0.001,0Zm-14.52,-12.511c-1.099,0 -1.982,-0.89 -1.982,-1.984c0,-1.094 0.884,-1.983 1.982,-1.983c1.096,0 1.983,0.889 1.983,1.983c0,1.094 -0.888,1.984 -1.983,1.984Zm1.712,12.511l-3.424,0l0,-11.005l3.424,0l0,11.005Zm14.517,-19.654l-19.656,0c-0.941,0 -1.702,0.744 -1.702,1.662l0,19.74c0,0.919 0.761,1.662 1.702,1.662l19.653,0c0.94,0 1.709,-0.743 1.709,-1.662l0,-19.74c0,-0.918 -0.769,-1.662 -1.709,-1.662l0.003,0Z" style="fill:#d7ebcf;fill-rule:nonzero;stroke:#5a5a5a;stroke-width:1px;"/></svg>