<?xml version="1.0" encoding="UTF-8" standalone="no"?><!DOCTYPE svg PUBLIC "-//W3C//DTD SVG 1.1//EN" "http://www.w3.org/Graphics/SVG/1.1/DTD/svg11.dtd"><svg width="100%" height="100%" viewBox="0 0 55 55" version="1.1" xmlns="http://www.w3.org/2000/svg" xmlns:xlink="http://www.w3.org/1999/xlink" xml:space="preserve" xmlns:serif="http://www.serif.com/" style="fill-rule:evenodd;clip-rule:evenodd;stroke-linejoin:round;stroke-miterlimit:1.41421;"><path id="menu" d="M50.16,30.738l-45.32,0c-1.788,0 -3.237,-1.449 -3.237,-3.239c0,-1.787 1.449,-3.236 3.237,-3.236l45.32,0c1.788,0 3.237,1.449 3.237,3.236c0,1.79 -1.449,3.239 -3.237,3.239Zm0,-15.107l-45.32,0c-1.788,0 -3.237,-1.451 -3.237,-3.237c0,-1.788 1.449,-3.237 3.237,-3.237l45.32,0c1.788,0 3.237,1.449 3.237,3.237c0,1.786 -1.449,3.237 -3.237,3.237Zm-45.32,23.738l45.32,0c1.788,0 3.237,1.449 3.237,3.238c0,1.787 -1.449,3.236 -3.237,3.236l-45.32,0c-1.788,0 -3.237,-1.449 -3.237,-3.236c0,-1.789 1.449,-3.238 3.237,-3.238Z" style="fill:#f9cdd7;stroke:#5a5a5a;stroke-width:1px;"/></svg>