<?xml version="1.0" encoding="UTF-8" standalone="no"?><!DOCTYPE svg PUBLIC "-//W3C//DTD SVG 1.1//EN" "http://www.w3.org/Graphics/SVG/1.1/DTD/svg11.dtd"><svg width="100%" height="100%" viewBox="0 0 55 55" version="1.1" xmlns="http://www.w3.org/2000/svg" xmlns:xlink="http://www.w3.org/1999/xlink" xml:space="preserve" xmlns:serif="http://www.serif.com/" style="fill-rule:evenodd;clip-rule:evenodd;stroke-linejoin:round;stroke-miterlimit:1.41421;"><path id="pin" d="M44.859,26.541c-4.168,14.024 -17.359,27.312 -17.359,27.312c0,0 -13.144,-13.254 -17.335,-27.247c-0.708,-1.969 -1.114,-4.191 -1.114,-6.405c0,-10.243 8.26,-18.439 18.449,-18.439c10.189,0 18.449,8.196 18.449,18.439c0,2.19 -0.397,4.39 -1.09,6.34Zm-17.359,-13.927c-4.195,0 -7.596,3.401 -7.596,7.597c0,4.195 3.401,7.596 7.596,7.596c4.196,0 7.597,-3.401 7.597,-7.596c0,-4.196 -3.401,-7.597 -7.597,-7.597Z" style="fill:#f9cdd7;stroke:#5a5a5a;stroke-width:2px;"/></svg>