<?xml version="1.0" standalone="no"?>
<!DOCTYPE svg PUBLIC "-//W3C//DTD SVG 20010904//EN"
 "http://www.w3.org/TR/2001/REC-SVG-20010904/DTD/svg10.dtd">
<svg version="1.0" xmlns="http://www.w3.org/2000/svg"
 width="656.000000pt" height="656.000000pt" viewBox="0 0 656.000000 656.000000"
 preserveAspectRatio="xMidYMid meet">
<metadata>
Created by potrace 1.11, written by Peter Selinger 2001-2013
</metadata>
<g transform="translate(0.000000,656.000000) scale(0.100000,-0.100000)"
fill="#000000" stroke="none">
<path d="M2718 6406 c-26 -7 -55 -19 -65 -27 -24 -18 -82 -79 -76 -79 3 0 -1
-7 -8 -16 -7 -9 -15 -23 -18 -33 -6 -22 -10 -1636 -4 -1661 3 -11 10 -17 16
-13 6 3 7 1 3 -5 -14 -23 74 -139 96 -126 4 3 8 1 8 -4 0 -15 81 -33 130 -28
51 5 102 25 94 37 -3 5 1 6 9 3 17 -6 50 23 41 37 -3 5 0 8 7 7 7 -2 24 17 38
42 24 43 25 53 25 212 1 93 5 168 9 168 5 0 5 5 2 11 -10 15 -11 329 -2 329 5
0 5 5 1 11 -9 16 -11 109 -1 109 5 0 5 5 2 11 -10 15 -11 489 -2 489 5 0 5 5
2 11 -10 15 -11 169 -2 169 5 0 5 4 2 10 -3 5 -7 47 -9 92 -3 66 -8 92 -29
128 -25 45 -82 100 -108 103 -8 2 -19 6 -25 9 -21 14 -90 15 -136 4z m227
-485 c3 -5 2 -12 -3 -15 -5 -3 -9 1 -9 9 0 17 3 19 12 6z m-215 -585 c-7 -7
-13 -7 -20 0 -6 6 -3 10 10 10 13 0 16 -4 10 -10z m15 -205 c3 -5 2 -12 -3
-15 -5 -3 -9 1 -9 9 0 17 3 19 12 6z m-77 -656 c-3 -3 -9 2 -12 12 -6 14 -5
15 5 6 7 -7 10 -15 7 -18z"/>
<path d="M1650 5852 c-62 -17 -119 -60 -161 -122 -22 -32 -24 -46 -26 -180 -2
-79 -5 -150 -7 -156 -3 -7 -2 -15 2 -18 10 -11 11 -36 1 -36 -6 0 -7 -5 -4
-10 4 -6 6 -99 5 -208 -1 -217 -1 -208 3 -411 2 -104 6 -146 15 -149 7 -2 10
-7 7 -12 -2 -4 7 -20 20 -34 14 -15 25 -31 25 -35 0 -4 12 -14 28 -22 15 -8
33 -19 39 -26 7 -6 24 -10 38 -9 13 2 22 -1 19 -5 -3 -5 16 -9 41 -9 25 0 44
4 41 9 -3 4 5 7 17 6 32 -4 70 13 61 26 -5 8 -3 9 5 4 16 -9 56 28 89 85 l27
45 0 550 c0 520 -1 552 -19 585 -33 61 -95 111 -156 127 -25 6 -94 10 -110 5z
m57 -417 c0 -8 -4 -12 -9 -9 -5 3 -6 10 -3 15 9 13 12 11 12 -6z m-106 -302
c13 -16 12 -17 -3 -4 -17 13 -22 21 -14 21 2 0 10 -8 17 -17z"/>
<path d="M3744 5841 c-22 -8 -45 -20 -52 -26 -43 -34 -72 -66 -72 -80 0 -8 -4
-15 -8 -15 -4 0 -12 -17 -18 -37 -13 -50 -12 -1092 1 -1101 6 -4 12 -16 13
-27 8 -44 79 -114 132 -129 14 -4 47 -9 73 -12 39 -4 47 -2 41 8 -6 10 -5 11
8 1 8 -7 18 -10 22 -6 3 4 13 8 21 9 16 2 73 40 95 63 20 21 47 78 56 116 9
39 8 440 0 454 -4 6 -4 11 1 11 9 0 8 282 -1 305 -3 8 -2 15 2 15 5 0 7 242 2
253 -1 1 -3 13 -6 27 -7 41 -13 52 -25 44 -8 -4 -9 -3 -5 5 11 18 -32 76 -73
97 -20 10 -38 21 -41 24 -18 18 -123 19 -166 1z m-54 -95 c0 -2 -7 -7 -16 -10
-8 -3 -12 -2 -9 4 6 10 25 14 25 6z m330 -280 c0 -2 -8 -10 -17 -17 -16 -13
-17 -12 -4 4 13 16 21 21 21 13z m-275 -15 c3 -5 2 -12 -3 -15 -5 -3 -9 1 -9
9 0 17 3 19 12 6z m2 -486 c0 -8 -4 -12 -9 -9 -5 3 -6 10 -3 15 9 13 12 11 12
-6z m198 -154 c3 -5 2 -12 -3 -15 -5 -3 -9 1 -9 9 0 17 3 19 12 6z m-200 -170
c3 -5 2 -12 -3 -15 -5 -3 -9 1 -9 9 0 17 3 19 12 6z"/>
<path d="M910 4358 c-82 -23 -150 -97 -165 -182 -10 -49 -10 -3173 -1 -3241
15 -108 32 -181 60 -255 19 -49 69 -154 76 -160 3 -3 17 -23 30 -45 34 -56 54
-79 142 -165 92 -91 91 -90 170 -137 118 -72 248 -124 341 -137 27 -4 59 -10
70 -13 12 -3 560 -6 1217 -7 1298 -2 1288 -2 1441 54 86 31 189 85 228 119 13
12 27 21 31 21 13 0 134 127 178 185 71 97 142 255 158 354 3 18 8 43 11 55 3
11 6 272 7 578 2 307 5 560 8 564 4 3 165 6 359 6 396 0 410 3 480 70 75 73
72 46 73 683 1 532 0 573 -18 618 -22 59 -72 109 -134 134 -43 17 -75 19 -404
18 -232 0 -358 3 -359 10 0 5 -2 165 -3 355 -1 336 -2 346 -24 391 -24 50 -61
87 -114 116 -32 17 -115 18 -1928 20 -1238 1 -1907 -2 -1930 -9z m4430 -1367
c3 0 5 -126 5 -278 l0 -278 -220 0 -219 0 -1 275 c0 151 0 277 1 280 2 4 416
5 434 1z"/>
</g>
</svg>
