<?xml version="1.0" encoding="UTF-8" standalone="no"?><!DOCTYPE svg PUBLIC "-//W3C//DTD SVG 1.1//EN" "http://www.w3.org/Graphics/SVG/1.1/DTD/svg11.dtd"><svg width="100%" height="100%" viewBox="0 0 33 41" version="1.1" xmlns="http://www.w3.org/2000/svg" xmlns:xlink="http://www.w3.org/1999/xlink" xml:space="preserve" xmlns:serif="http://www.serif.com/" style="fill-rule:evenodd;clip-rule:evenodd;stroke-linecap:round;stroke-linejoin:round;stroke-miterlimit:1.5;"><g id="Coffee-Mug" serif:id="Coffee Mug"><path d="M25.165,15.19l-23.054,0c0,0 0,12.21 0,19.291c0,1.307 0.519,2.56 1.443,3.485c0.924,0.924 2.178,1.443 3.485,1.443c4.114,0 9.918,0 13.841,0c2.367,0 4.285,-1.919 4.285,-4.285c0,-6.956 0,-19.934 0,-19.934Z" style="fill:#d9e6f4;stroke:#3d3e3e;stroke-width:3px;"/><path d="M25.398,20.779l5.512,0l0,6.521l-5.512,0" style="fill:none;stroke:#3d3e3e;stroke-width:3px;"/><path d="M6.621,5.889l0,6.054" style="fill:none;stroke:#3d3e3e;stroke-opacity:0.905882;stroke-width:3px;"/><path d="M13.374,2.395l0,9.548" style="fill:none;stroke:#3d3e3e;stroke-opacity:0.905882;stroke-width:3px;"/><path d="M19.895,5.889l0,6.054" style="fill:none;stroke:#3d3e3e;stroke-opacity:0.905882;stroke-width:3px;"/></g></svg>