<?xml version="1.0" encoding="UTF-8" standalone="no"?><!DOCTYPE svg PUBLIC "-//W3C//DTD SVG 1.1//EN" "http://www.w3.org/Graphics/SVG/1.1/DTD/svg11.dtd"><svg width="100%" height="100%" viewBox="0 0 55 54" version="1.1" xmlns="http://www.w3.org/2000/svg" xmlns:xlink="http://www.w3.org/1999/xlink" xml:space="preserve" xmlns:serif="http://www.serif.com/" style="fill-rule:evenodd;clip-rule:evenodd;stroke-linejoin:round;stroke-miterlimit:1.41421;"><path d="M27.909,52.685c-14.158,0 -25.683,-11.526 -25.683,-25.683c0,-14.158 11.525,-25.683 25.683,-25.683c14.158,0 25.683,11.525 25.683,25.683c0,14.157 -11.525,25.683 -25.683,25.683Zm21.659,-22.169c-0.749,-0.235 -6.784,-2.04 -13.663,-0.937c2.868,7.884 4.039,14.305 4.263,15.64c4.923,-3.328 8.424,-8.603 9.407,-14.703l-0.007,0Zm-13.087,16.711c-0.328,-1.926 -1.606,-8.629 -4.688,-16.63l-0.141,0.043c-12.392,4.313 -16.822,12.895 -17.207,13.698c3.702,2.906 8.389,4.635 13.462,4.635c3.039,0 5.928,-0.62 8.561,-1.742l0.013,-0.004Zm-24.87,-5.522c0.496,-0.856 6.517,-10.819 17.832,-14.479c0.289,-0.096 0.578,-0.179 0.867,-0.256c-0.556,-1.253 -1.156,-2.498 -1.78,-3.725c-10.959,3.275 -21.583,3.136 -22.546,3.115l-0.008,0.667c0,5.636 2.136,10.781 5.637,14.672l-0.002,0.006Zm-5.18,-19.166c0.985,0.017 10.023,0.056 20.284,-2.671c-3.635,-6.459 -7.556,-11.895 -8.133,-12.687c-6.139,2.889 -10.723,8.539 -12.148,15.345l-0.003,0.013Zm16.341,-16.829c0.604,0.814 4.591,6.237 8.18,12.842c7.802,-2.922 11.108,-7.363 11.5,-7.923c-3.874,-3.446 -8.968,-5.535 -14.543,-5.535c-1.766,0 -3.489,0.214 -5.137,0.61l0,0.006Zm22.12,7.455c-0.467,0.621 -4.142,5.336 -12.251,8.647c0.514,1.048 1.006,2.108 1.455,3.18c0.172,0.385 0.321,0.77 0.471,1.134c7.298,-0.92 14.554,0.557 15.282,0.707c-0.043,-5.18 -1.884,-9.931 -4.944,-13.655l-0.013,-0.013Z" style="fill:#f3cbd6;fill-rule:nonzero;stroke:#595959;stroke-width:1.75px;"/></svg>