<?xml version="1.0" encoding="UTF-8" standalone="no"?><!DOCTYPE svg PUBLIC "-//W3C//DTD SVG 1.1//EN" "http://www.w3.org/Graphics/SVG/1.1/DTD/svg11.dtd"><svg width="100%" height="100%" viewBox="0 0 55 55" version="1.1" xmlns="http://www.w3.org/2000/svg" xmlns:xlink="http://www.w3.org/1999/xlink" xml:space="preserve" xmlns:serif="http://www.serif.com/" style="fill-rule:evenodd;clip-rule:evenodd;stroke-linejoin:round;stroke-miterlimit:1.41421;"><path id="mail" d="M50.177,48.185l-45.354,0c-1.789,0 -3.239,-1.462 -3.239,-3.265l0,-34.84c0,-1.805 1.45,-3.265 3.239,-3.265l45.354,0c1.789,0 3.239,1.46 3.239,3.265l0,34.84c0,1.803 -1.45,3.265 -3.239,3.265Zm-3.24,-6.532l0,-25.204l-17.858,18.029c-0.438,0.442 -1.016,0.655 -1.59,0.641c-0.574,0.014 -1.152,-0.199 -1.591,-0.641l-17.835,-18.007l0,25.182l38.874,0Zm-3.109,-28.308l-32.679,0l16.34,16.497l16.339,-16.497Z" style="fill:#f9cdd7;stroke:#5a5a5a;stroke-width:2px;"/></svg>